<svg width="18" height="20" viewBox="0 0 18 20" fill="none" xmlns="http://www.w3.org/2000/svg">
<path d="M2.77734 19.0195C1.86328 19.0195 1.17188 18.7852 0.703125 18.3164C0.234375 17.8535 0 17.1709 0 16.2686V7.7168C0 6.80859 0.234375 6.12305 0.703125 5.66016C1.17188 5.19727 1.86328 4.96582 2.77734 4.96582H14.8623C15.7705 4.96582 16.459 5.2002 16.9277 5.66895C17.4023 6.13184 17.6396 6.81445 17.6396 7.7168V16.2686C17.6396 17.1709 17.4023 17.8535 16.9277 18.3164C16.459 18.7852 15.7705 19.0195 14.8623 19.0195H2.77734ZM2.90918 17.2617H14.7217C15.0908 17.2617 15.375 17.165 15.5742 16.9717C15.7734 16.7842 15.873 16.4941 15.873 16.1016V7.88379C15.873 7.49121 15.7734 7.20117 15.5742 7.01367C15.375 6.82031 15.0908 6.72363 14.7217 6.72363H2.90918C2.54004 6.72363 2.25586 6.82031 2.05664 7.01367C1.86328 7.20117 1.7666 7.49121 1.7666 7.88379V16.1016C1.7666 16.4941 1.86328 16.7842 2.05664 16.9717C2.25586 17.165 2.54004 17.2617 2.90918 17.2617ZM1.86328 3.59473C1.92188 3.19629 2.05957 2.88574 2.27637 2.66309C2.49902 2.44043 2.83887 2.3291 3.2959 2.3291H14.3438C14.8008 2.3291 15.1406 2.44043 15.3633 2.66309C15.5859 2.88574 15.7266 3.19629 15.7852 3.59473H1.86328ZM3.55078 1.16016C3.58008 0.785156 3.70605 0.498047 3.92871 0.298828C4.15137 0.0996094 4.46484 0 4.86914 0H12.7793C13.1836 0 13.4971 0.0996094 13.7197 0.298828C13.9424 0.498047 14.0684 0.785156 14.0977 1.16016H3.55078ZM9.37793 15.249C9.19629 15.249 9.08789 15.1523 9.05273 14.959C8.96484 14.3613 8.8623 13.8721 8.74512 13.4912C8.63379 13.1104 8.47266 12.8115 8.26172 12.5947C8.05664 12.3721 7.7666 12.2021 7.3916 12.085C7.02246 11.9678 6.53027 11.874 5.91504 11.8037C5.71582 11.7686 5.61621 11.6631 5.61621 11.4873C5.61621 11.3057 5.71582 11.2002 5.91504 11.1709C6.40723 11.1064 6.82031 11.0332 7.1543 10.9512C7.48828 10.8633 7.76074 10.749 7.97168 10.6084C8.18262 10.4678 8.35254 10.2891 8.48145 10.0723C8.61035 9.84961 8.71582 9.57129 8.79785 9.2373C8.88574 8.90332 8.9707 8.49902 9.05273 8.02441C9.08789 7.83105 9.19629 7.73438 9.37793 7.73438C9.55371 7.73438 9.65918 7.83105 9.69434 8.02441C9.76465 8.49902 9.84082 8.90332 9.92285 9.2373C10.0107 9.56543 10.1191 9.84082 10.248 10.0635C10.3828 10.2803 10.5586 10.459 10.7754 10.5996C10.9922 10.7402 11.2676 10.8545 11.6016 10.9424C11.9355 11.0303 12.3457 11.1064 12.832 11.1709C13.0312 11.2002 13.1309 11.3057 13.1309 11.4873C13.1309 11.6748 13.0312 11.7803 12.832 11.8037C12.2168 11.8857 11.7246 11.9883 11.3555 12.1113C10.9863 12.2285 10.6992 12.3955 10.4941 12.6123C10.2891 12.8232 10.1309 13.1191 10.0195 13.5C9.9082 13.875 9.7998 14.3643 9.69434 14.9678C9.65332 15.1553 9.54785 15.249 9.37793 15.249ZM6.09082 16.5762C5.96191 16.5762 5.88281 16.5029 5.85352 16.3564C5.7832 15.9639 5.72168 15.6826 5.66895 15.5127C5.61621 15.3369 5.50195 15.2139 5.32617 15.1436C5.15625 15.0732 4.86035 15.0059 4.43848 14.9414C4.29199 14.9238 4.21875 14.8447 4.21875 14.7041C4.21875 14.5752 4.28613 14.499 4.4209 14.4756C4.84863 14.3994 5.15039 14.3291 5.32617 14.2646C5.50195 14.1943 5.61621 14.0713 5.66895 13.8955C5.72168 13.7197 5.7832 13.4385 5.85352 13.0518C5.88281 12.9111 5.96191 12.8408 6.09082 12.8408C6.21973 12.8408 6.29883 12.9111 6.32812 13.0518C6.39844 13.4443 6.45996 13.7285 6.5127 13.9043C6.57129 14.0801 6.68848 14.2031 6.86426 14.2734C7.04004 14.3379 7.3418 14.4053 7.76953 14.4756C7.89844 14.4932 7.96289 14.5693 7.96289 14.7041C7.96289 14.8389 7.89844 14.918 7.76953 14.9414C7.33594 15.0117 7.03125 15.082 6.85547 15.1523C6.68555 15.2168 6.57129 15.3398 6.5127 15.5215C6.45996 15.6973 6.39844 15.9844 6.32812 16.3828C6.29883 16.5117 6.21973 16.5762 6.09082 16.5762Z" fill="#464646"/>
</svg>
